<?xml version="1.0" encoding="utf-8"?>
<!-- Generator: Adobe Illustrator 25.0.1, SVG Export Plug-In . SVG Version: 6.00 Build 0)  -->
<svg version="1.1" id="Layer_1" xmlns="http://www.w3.org/2000/svg" xmlns:xlink="http://www.w3.org/1999/xlink" x="0px" y="0px"
	 viewBox="0 0 92.4 25" style="enable-background:new 0 0 92.4 25;" xml:space="preserve">
<style type="text/css">
	.st0{fill:#F3F5F3;}
</style>
<path class="st0" d="M92.5,24.9h-8.2c-0.1,0-0.1-0.1-0.2-0.2c0-0.1-0.1-0.1-0.1-0.2c0-5.4,0-10.7,0-16.2h-8.3v16.4h-8.4V0h25.1
	L92.5,24.9L92.5,24.9z"/>
<path class="st0" d="M16.8,8.2V0.1h8.3v24.8h-8.2V17c-0.1-0.1-0.2-0.2-0.2-0.3c-0.1,0-0.1-0.1-0.2-0.1h-8v8.2H0V0.1h8.4v8.1
	C8.4,8.2,16.8,8.2,16.8,8.2z"/>
<path class="st0" d="M33.6,8.2V0.1h25.2c0,2.6,0,5.4,0,8.2H33.6V8.2z"/>
<path class="st0" d="M33.7,16.6h25.1v8c-1.9,0.3-17.9,0.4-25.1,0.1L33.7,16.6z"/>
</svg>
